<svg height="82" viewBox="0 0 202 82" width="202" xmlns="http://www.w3.org/2000/svg"><g fill="none"><g fill="#181716"><path d="m27.3 60c-.1 0-.2-.1-.2-.1-.1-.3-5.4-6.8-6.4-9.8.3-2.2-.4-4.6-2.2-6.2-2.8-2.7-18.5-7.7-18.5-7.7s6 15.4 8.8 18c1.8 1.7 4.2 2.2 6.4 1.8 3.1.8 9.8 5.7 10.2 5.8.2.5.4 1 .7 1.6 1-.9 1.2-2.1 1.2-3.4"/><path d="m27.9 60c.1 0 .2-.1.2-.1.1-.3 5.4-6.8 6.4-9.8-.3-2.2.4-4.6 2.2-6.2 2.9-2.7 18.6-7.7 18.6-7.7s-6 15.4-8.8 18c-1.8 1.7-4.2 2.2-6.4 1.8-3.1.8-9.8 5.7-10.2 5.8-.2.5-.4 1-.7 1.6-1.1-.9-1.3-2.1-1.3-3.4"/><path d="m34.4 41.4c3-2.1 5-5.6 5-9.6 0-6.5-11.7-30.9-11.7-30.9s-11.7 24.5-11.7 30.9c0 4 2 7.6 5.1 9.7 2.6 4.6 4.3 18.1 4.5 18.7-2.1 4.6-4.9 11.4-4.9 13.9 0 3.9 3.1 7 7 7s7-3.1 7-7c0-2.5-2.9-9.3-4.9-13.9.2-.5 2-14.2 4.6-18.8"/><path d="m28.8 57c.6.6.6 1.5 0 2.1l-11.4 11.5c-.6.6-1.5.6-2.1 0s-.6-1.5 0-2.1l11.4-11.5c.6-.6 1.5-.6 2.1 0"/><path d="m40.3 70.6c-.6.6-1.5.6-2.1 0l-11.5-11.5c-.6-.6-.6-1.5 0-2.1s1.5-.6 2.1 0l11.5 11.5c.6.6.6 1.5 0 2.1"/><path d="m19.2 69.5c0 1.7-1.4 3-3 3-1.7 0-3-1.4-3-3 0-1.7 1.4-3 3-3 1.7 0 3 1.4 3 3"/><path d="m42.2 69.5c0 1.7-1.4 3-3 3-1.7 0-3-1.4-3-3 0-1.7 1.4-3 3-3 1.7 0 3 1.4 3 3"/></g><path d="m16.5 45.2c1.9 1.8 2 4.9.2 6.8s-4.9 2-6.8.2-5.9-12.2-5.9-12.2 10.6 3.4 12.5 5.2" fill="#fff"/><path d="m15.4 46.2c1.4 1.3 1.4 3.4.1 4.8s-3.4 1.4-4.7.1c-1.4-1.3-4.2-8.5-4.2-8.5s7.5 2.3 8.8 3.6" fill="#181716"/><path d="m34.9 30.6c0 4-3.2 7.2-7.2 7.2s-7.2-3.2-7.2-7.2 7.2-19.1 7.2-19.1 7.2 15.1 7.2 19.1" fill="#fff"/><path d="m32.4 30.1c0 2.7-2.1 4.8-4.8 4.8s-4.8-2.1-4.8-4.8c0-2.6 4.8-12.7 4.8-12.7s4.8 10 4.8 12.7" fill="#181716"/><path d="m45.3 52.1c-1.9 1.8-5 1.7-6.8-.2s-1.7-5 .2-6.8 12.5-5.2 12.5-5.2-4 10.4-5.9 12.2" fill="#fff"/><path d="m44.4 51c-1.3 1.3-3.5 1.2-4.8-.1s-1.2-3.5.1-4.8 8.8-3.6 8.8-3.6-2.7 7.2-4.1 8.5" fill="#181716"/><path d="m31.8 73.7c0 2.3-1.9 4.2-4.2 4.2s-4.2-1.9-4.2-4.2 4.2-11 4.2-11 4.2 8.7 4.2 11" fill="#fff"/><g fill="#181716" transform="translate(71 24)"><path d="m16.9 21h-3.8l-2.7-14.6h-.1l-2.6 14.6h-3.8l-3.7-19.5h3.4l2.4 15.1h.1l2.6-15.1h3.5l2.7 15.1h.1l2.5-15.1h3.2z"/><path d="m28.3 18.9c-.4 1.5-1.5 2.4-3.2 2.4-1.6 0-3.5-1.1-3.5-4.2 0-4 3.1-4.9 5.8-4.9h.8v-.4c0-1.8-.8-2.6-2.1-2.6-1 0-2 .5-2.6 1.3l-1.5-2c1-1.3 2.7-2 4.3-2 3.5 0 4.6 2.3 4.6 6.2v8.3h-2.6zm-.1-4.5h-.9c-1.5 0-3 .4-3 2.4 0 1.5.7 2.1 1.6 2.1 1.7 0 2.3-2.1 2.3-3.8z"/><path d="m34.5 21v-20.8h3.1v20.8z"/><path d="m41.4 21v-20.8h3.1v20.8z"/><path d="m54.4 21.4c-1.6 0-2.7-1-3.1-2.3h-.1v8.4h-3.1v-20.6h3v2h.1c.5-1.4 1.3-2.4 3.1-2.4 2.9 0 4.5 3.2 4.5 7.5.2 4.2-1.4 7.4-4.4 7.4zm-.9-12.2c-1.6 0-2.3 2.1-2.3 4.8s.8 4.8 2.3 4.8c1.6 0 2.3-2.1 2.3-4.8s-.6-4.8-2.3-4.8z"/><path d="m67.7 18.9c-.4 1.5-1.5 2.4-3.2 2.4-1.6 0-3.5-1.1-3.5-4.2 0-4 3.1-4.9 5.8-4.9h.8v-.4c0-1.8-.8-2.6-2.1-2.6-1 0-2 .5-2.6 1.3l-1.5-2c1-1.3 2.7-2 4.3-2 3.5 0 4.6 2.3 4.6 6.2v8.3h-2.6zm-.1-4.5h-.9c-1.5 0-3 .4-3 2.4 0 1.5.7 2.1 1.6 2.1 1.7 0 2.3-2.1 2.3-3.8z"/><path d="m80 21.4c-1.6 0-2.7-1-3.1-2.3h-.1v8.4h-3.1v-20.6h3v2h.1c.5-1.4 1.3-2.4 3.1-2.4 2.9 0 4.5 3.2 4.5 7.5.2 4.2-1.4 7.4-4.4 7.4zm-.9-12.2c-1.6 0-2.3 2.1-2.3 4.8s.8 4.8 2.3 4.8c1.6 0 2.3-2.1 2.3-4.8s-.6-4.8-2.3-4.8z"/><path d="m89.7 14.8c0 2.2.9 4 2.5 4 1.1 0 1.8-.9 2.2-1.8l2.3 1.3c-.8 1.9-2.3 3.2-4.6 3.2-3.2 0-5.4-2.7-5.4-7.5 0-4.5 2.2-7.5 5.4-7.5 3.6 0 5 3.1 5 7.1v1.2zm2.3-5.8c-1.6 0-2.2 2.2-2.3 3.5h4.3c0-2.1-.6-3.5-2-3.5z"/><path d="m105.9 6.5c.2 0 .3 0 .5.1l-.2 3.2c-.2-.1-.4-.1-.7-.1-1.6 0-2.5 2.1-2.5 4.3v7h-3.2v-14h3.1v2.7h.1c.4-2.1 1.5-3.2 2.9-3.2z"/><path d="m7.5 30.4c-.2-.1-.5-.1-.8-.1-1.4 0-1.7 1.3-1.7 2.7v2h2.3v2.5h-2.2v11.5h-3v-11.6h-1.8v-2.5h1.8v-2c0-3 1.2-5.3 4.3-5.3.4 0 1 .1 1.5.2z"/><path d="m15.2 34.5c.2 0 .3 0 .5.1l-.2 3.2c-.2-.1-.4-.1-.7-.1-1.6 0-2.5 2.1-2.5 4.3v7h-3.2v-14h3.1v2.7h.1c.4-2.1 1.5-3.2 2.9-3.2z"/><path d="m21.9 49.4c-3.4 0-5.4-3.1-5.4-7.5 0-4.5 2-7.5 5.4-7.5s5.4 3 5.4 7.5-2 7.5-5.4 7.5zm0-12.2c-1.6 0-2.3 2.1-2.3 4.8s.7 4.8 2.3 4.8 2.3-2.1 2.3-4.8c.1-2.7-.7-4.8-2.3-4.8z"/><path d="m36.8 34.5c2 0 2.9 1.3 3.3 2.7h.1c.5-1.3 1.7-2.7 3.7-2.7 3.1 0 3.6 2.8 3.6 5.7v8.8h-3.1v-8.8c0-1.4-.2-3-1.7-3-1.4 0-2.3 1.6-2.3 3.7v8.1h-3.1v-8.8c0-1.4-.2-3-1.7-3-1.4 0-2.2 1.6-2.2 3.7v8.1h-3.1v-14h3.1v2.2h.1c.3-1.5 1.5-2.7 3.3-2.7z"/><path d="m59.6 37.3v7.2c0 1.5.4 2.2 1.4 2.2.3 0 .7-.1 1-.2l.1 2.4c-.4.2-1.2.4-2 .4-2.4 0-3.4-1.5-3.4-4.1v-7.9h-1.8v-2.4h1.8v-3.6h2.9v3.6h2.4v2.4z"/><path d="m71.3 49v-8.8c0-1.4-.2-3-1.7-3-1.4 0-2.3 1.6-2.3 3.7v8.1h-3.1v-20.8h3.1v8.9h.1c.5-1.4 1.7-2.6 3.4-2.6 3.1 0 3.6 2.8 3.6 5.7v8.8z"/><path d="m80.3 42.8c0 2.2.9 4 2.5 4 1.1 0 1.8-.9 2.2-1.8l2.3 1.3c-.8 1.9-2.3 3.2-4.6 3.2-3.2 0-5.4-2.7-5.4-7.5 0-4.5 2.2-7.5 5.4-7.5 3.6 0 5 3.1 5 7.1v1.2zm2.3-5.8c-1.6 0-2.2 2.2-2.3 3.5h4.3c0-2.1-.6-3.5-2-3.5z"/><path d="m99.9 49h-3.5l6-16.5h-7.1v-2.9h10.6v2.6z"/><path d="m114.5 49.4c-4.8 0-5.9-5.7-5.9-10.1s1-10.1 5.9-10.1 5.9 5.7 5.9 10.1-1 10.1-5.9 10.1zm0-17.3c-2.3 0-2.6 4.5-2.6 7.2s.3 7.2 2.6 7.2 2.6-4.5 2.6-7.2-.3-7.2-2.6-7.2z"/><path d="m129.2 38.1c-.5-.7-1.3-1.2-2.3-1.2-.9 0-1.6.7-1.6 1.8s.6 1.4 2.1 2c1.6.5 3.3 1.6 3.3 4.2 0 3.1-2.2 4.6-4.5 4.6-1.7 0-3.4-.7-4.4-1.9l1.7-2c.7.8 1.5 1.4 2.7 1.4 1 0 1.7-.8 1.7-1.9 0-1.3-.9-1.7-2.4-2.3-1.4-.5-3-1.4-3-4 0-2.7 2.1-4.3 4.4-4.3 1.7 0 3.1.7 4 1.6z"/></g></g></svg>